<?xml version="1.0" encoding="UTF-8" standalone="no"?>
<svg width="285px" height="193px" viewBox="0 0 285 193" version="1.1" xmlns="http://www.w3.org/2000/svg" xmlns:xlink="http://www.w3.org/1999/xlink">
    <!-- Generator: Sketch 49.3 (51167) - http://www.bohemiancoding.com/sketch -->
    <title>Page 1</title>
    <desc>Created with Sketch.</desc>
    <defs>
        <polygon id="path-1" points="0 0.7667 53.5615 0.7667 53.5615 72.5937 0 72.5937"></polygon>
        <polygon id="path-3" points="0.6043 0.361 89.2083 0.361 89.2083 193 0.6043 193"></polygon>
    </defs>
    <g id="Atomic-Library" stroke="none" stroke-width="1" fill="none" fill-rule="evenodd">
        <g id="Icons" transform="translate(-44.000000, -46.000000)">
            <g id="Page-1" transform="translate(44.000000, 45.000000)">
                <g id="Group-3" transform="translate(0.000000, 60.639000)">
                    <mask id="mask-2" fill="white">
                        <use xlink:href="#path-1"></use>
                    </mask>
                    <g id="Clip-2"></g>
                    <path d="M27.9095,33.6017 C32.0135,33.6017 35.1955,30.4207 35.1955,25.9067 C35.1955,21.3907 32.0135,18.3137 27.9095,18.3137 L18.3665,18.3137 L18.3665,33.6017 L27.9095,33.6017 Z M27.9095,0.7667 C35.1955,0.7667 41.2485,3.1267 46.1735,7.8477 C51.0985,12.5677 53.5615,18.6217 53.5615,25.9067 C53.5615,33.1917 51.0985,39.2457 46.1735,43.9657 C41.2485,48.6857 35.1955,51.0447 27.9095,51.0447 L18.3665,51.0447 L18.3665,72.5937 L-0.0005,72.5937 L-0.0005,0.7667 L27.9095,0.7667 Z" id="Fill-1" fill="#221F1F" mask="url(#mask-2)"></path>
                </g>
                <polygon id="Fill-4" fill="#221F1F" points="116.2591 133.2329 95.7371 133.2329 84.4491 114.1459 73.1621 133.2329 52.5381 133.2329 74.1891 96.6009 53.3591 61.4059 73.9831 61.4059 84.4491 79.1579 94.9161 61.4059 115.5401 61.4059 94.7111 96.7029"></polygon>
                <path d="M150.4319,94.2407 C154.5359,94.2407 157.7169,91.0597 157.7169,86.5457 C157.7169,82.0297 154.5359,78.9527 150.4319,78.9527 L140.8879,78.9527 L140.8879,94.2407 L150.4319,94.2407 Z M150.4319,61.4057 C157.7169,61.4057 163.7699,63.7657 168.6959,68.4867 C173.6209,73.2067 176.0829,79.2607 176.0829,86.5457 C176.0829,93.8307 173.6209,99.8847 168.6959,104.6047 C163.7699,109.3247 157.7169,111.6837 150.4319,111.6837 L140.8879,111.6837 L140.8879,133.2327 L122.5209,133.2327 L122.5209,61.4057 L150.4319,61.4057 Z" id="Fill-6" fill="#221F1F"></path>
                <g id="Group-10" transform="translate(149.000000, 0.639000)">
                    <mask id="mask-4" fill="white">
                        <use xlink:href="#path-3"></use>
                    </mask>
                    <g id="Clip-9"></g>
                    <polygon id="Fill-8" fill="#F05783" mask="url(#mask-4)" points="2.7083 193.0001 0.6043 193.0001 87.1043 0.3601 89.2083 0.3601"></polygon>
                </g>
                <polygon id="Fill-11" fill="#221F1F" points="284.9998 133.2329 264.4788 133.2329 253.1908 114.1459 241.9048 133.2329 221.2788 133.2329 242.9308 96.6009 222.0998 61.4059 242.7268 61.4059 253.1908 79.1579 263.6578 61.4059 284.2818 61.4059 263.4528 96.7029"></polygon>
            </g>
        </g>
    </g>
</svg>